<svg xmlns="http://www.w3.org/2000/svg" width="29" height="26" fill="none" viewBox="0 0 29 26">
  <path fill="#fff" d="M6.188 10.7c.085 1.073.932 1.909 2.454 2.008v.792h.676v-.798c1.573-.11 2.495-.951 2.495-2.173 0-1.11-.704-1.683-1.963-1.98l-.532-.127V6.266c.675.077 1.104.445 1.207.957h1.184c-.085-1.034-.972-1.843-2.391-1.93V4.5h-.676v.809c-1.344.132-2.26.94-2.26 2.085 0 1.012.681 1.656 1.814 1.92l.446.11v2.288c-.692-.104-1.15-.484-1.253-1.012H6.187Zm2.449-2.437c-.664-.154-1.025-.468-1.025-.94 0-.529.39-.925 1.03-1.04v1.98h-.005Zm.778 1.342c.807.187 1.179.49 1.179 1.023 0 .611-.464 1.03-1.276 1.106v-2.15l.097.021Z"/>
  <path fill="#fff" d="M9 16.875a7.875 7.875 0 1 1 0-15.75 7.875 7.875 0 0 1 0 15.75ZM9 18A9 9 0 1 0 9 0a9 9 0 0 0 0 18Z"/>
  <path fill="#fff" d="M9 15.188A6.187 6.187 0 1 1 9 2.813a6.187 6.187 0 0 1 0 12.374Zm0 .562a6.75 6.75 0 1 0 0-13.5 6.75 6.75 0 0 0 0 13.5Z"/>
  <rect width="20" height="20" x="9" y="6" fill="#252425" rx="10"/>
  <path fill="#fff" d="M10.5 16a8.5 8.5 0 1 1 17 0 8.5 8.5 0 0 1-17 0Zm7.969-7.356c-.712.217-1.42.872-2.006 1.971a8.274 8.274 0 0 0-.42.926c.75.168 1.566.274 2.426.305V8.644Zm-3.455 2.617c.152-.408.323-.792.512-1.146.19-.356.402-.69.634-.991a7.448 7.448 0 0 0-2.418 1.616c.384.195.81.37 1.272.52Zm-.786 4.208c.038-1.137.2-2.218.463-3.196a9.698 9.698 0 0 1-1.662-.708 7.399 7.399 0 0 0-1.448 3.904h2.647Zm1.488-2.913a13.11 13.11 0 0 0-.425 2.913h3.178v-2.56a14.458 14.458 0 0 1-2.754-.353Zm3.815.353v2.56h3.178a13.11 13.11 0 0 0-.424-2.913c-.86.199-1.787.32-2.754.353Zm-4.24 3.622c.038 1.049.188 2.033.425 2.913a14.41 14.41 0 0 1 2.753-.353v-2.56H15.29Zm4.24 0v2.56c.967.032 1.895.154 2.754.353.236-.88.386-1.864.424-2.913h-3.178Zm-3.487 3.928c.127.33.267.64.42.926.586 1.1 1.294 1.754 2.005 1.971v-3.202a13.41 13.41 0 0 0-2.425.305Zm.116 2.417a7.12 7.12 0 0 1-.634-.991 9.424 9.424 0 0 1-.512-1.146c-.461.15-.888.326-1.272.521a7.45 7.45 0 0 0 2.418 1.616Zm-1.469-3.15a14.197 14.197 0 0 1-.463-3.195H11.58a7.399 7.399 0 0 0 1.448 3.905 9.698 9.698 0 0 1 1.662-.71Zm7.149 3.15a7.45 7.45 0 0 0 2.418-1.616 8.907 8.907 0 0 0-1.272-.52 9.393 9.393 0 0 1-.512 1.145c-.19.356-.402.69-.634.991Zm-2.309-2.722v3.202c.712-.217 1.42-.872 2.006-1.971.152-.285.292-.595.42-.926a13.411 13.411 0 0 0-2.426-.305Zm3.778-.427a9.698 9.698 0 0 1 1.662.709 7.399 7.399 0 0 0 1.448-3.905h-2.647a14.197 14.197 0 0 1-.463 3.196Zm3.11-4.258a7.399 7.399 0 0 0-1.448-3.904 9.698 9.698 0 0 1-1.662.708c.263.978.425 2.059.463 3.196h2.647Zm-3.945-5.354c.189.354.36.738.512 1.146a8.85 8.85 0 0 0 1.272-.521 7.448 7.448 0 0 0-2.418-1.616c.232.302.444.635.634.991Zm-.518 1.426a8.274 8.274 0 0 0-.42-.926c-.586-1.1-1.294-1.754-2.005-1.971v3.202c.86-.031 1.676-.137 2.425-.305Z"/>
</svg>
