<svg xmlns="http://www.w3.org/2000/svg" width="100%" height="100%" fill="none" viewBox="0 0 83 126">
  <path fill="url(#a)" d="M73.9 64.8c-1.45-1.32-.71-2.43-.65-3.48.49-8.24.61-16.46-2.06-24.43-1.37-4.09-3.7-7.4-8.07-8.66-4.37-1.26-5.7-.25-5.71 4.27 0 17.34.07 34.68-.09 52a15.691 15.691 0 0 1-16.61 15.559c-8.4-.41-14.38-6.2-15.46-15-.89-7.27 4.4-14.62 12.07-16.79a24.128 24.128 0 0 1 7.42-.76c2.1.06 3.31-.68 3.25-3-.08-3.24-.07-6.49 0-9.73 0-2.14-1-2.75-3-2.81-19.55-.53-34.26 11.6-35.26 30.5-1 18.51 13.05 31.1 27.46 32.91 19.74 2.49 32.62-12.1 35.13-24.58 1.2-5.91.44-11.94.57-17.92.1-4.78 4.29-7.22 8.6-5A2.16 2.16 0 0 1 82.73 70c.12 11.82 1 23.65-5.36 34.6-9.06 15.69-28.37 24.2-45.87 19.68A41.618 41.618 0 0 1 0 84.889c-.72-24.71 20.59-43 42-42.29 6 .2 6 0 6-6.13V6.53c0-2.8.32-5.4 3.45-6.3 3.13-.9 4.88 1.1 6.15 3.59 3.19 6.35 8.2 11.18 13.18 16.12 5.81 5.72 9.45 12.56 10.12 20.73.73 8.85-1.9 16.75-7 24.13Z"/>
  <defs>
    <linearGradient id="a" x1="8.43" x2="86.27" y1="108.889" y2="31.049" gradientUnits="userSpaceOnUse">
      <stop stop-color="#6A29C5"/>
      <stop offset=".55" stop-color="#A22E7D"/>
      <stop offset="1" stop-color="#D23340"/>
    </linearGradient>
  </defs>
</svg>
