<svg xmlns="http://www.w3.org/2000/svg" width="34" height="28" fill="none" viewBox="0 0 34 28">
  <path fill="url(#a)" fill-rule="evenodd" d="M24 7.5c5.523 0 10 4.477 10 10s-4.477 10-10 10-10-4.477-10-10 4.477-10 10-10Z" clip-rule="evenodd"/>
  <path fill="#fff" d="M20.356 15.223c2.011-1.965 5.277-1.965 7.289 0l.242.238a.246.246 0 0 1 0 .355l-.828.809a.13.13 0 0 1-.184 0l-.332-.324a3.658 3.658 0 0 0-5.086 0l-.355.347a.13.13 0 0 1-.184 0l-.828-.808a.245.245 0 0 1 0-.356l.266-.261Zm9.004 1.671.738.72a.245.245 0 0 1 0 .355l-3.324 3.246a.262.262 0 0 1-.364 0l-2.359-2.305a.066.066 0 0 0-.09 0l-2.36 2.305a.262.262 0 0 1-.363 0l-3.335-3.246a.245.245 0 0 1 0-.356l.738-.718a.262.262 0 0 1 .363 0l2.36 2.304a.066.066 0 0 0 .09 0l2.359-2.305a.262.262 0 0 1 .363 0l2.36 2.305a.066.066 0 0 0 .09 0l2.359-2.305a.277.277 0 0 1 .375 0Z"/>
  <path fill="#E2761B" stroke="#E2761B" stroke-linecap="round" stroke-linejoin="round" d="m18.927 2.951-6.87 5.103 1.27-3.01 5.6-2.093Z"/>
  <path fill="#E4761B" stroke="#E4761B" stroke-linecap="round" stroke-linejoin="round" d="M3.066 2.951 9.88 8.103l-1.208-3.06-5.607-2.092Zm13.39 11.829-1.83 2.804 3.915 1.077 1.125-3.819-3.21-.062Zm-14.115.062 1.119 3.819 3.915-1.078-1.83-2.803-3.204.062Z"/>
  <path fill="#E4761B" stroke="#E4761B" stroke-linecap="round" stroke-linejoin="round" d="m7.154 10.043-1.091 1.65 3.887.173-.138-4.178-2.658 2.355Zm7.685 0L12.146 7.64l-.09 4.226 3.881-.173-1.098-1.65Zm-7.464 7.54 2.334-1.139-2.017-1.574-.317 2.714Zm4.91-1.139 2.34 1.14-.324-2.714-2.017 1.574Z"/>
  <path fill="#D7C1B3" stroke="#D7C1B3" stroke-linecap="round" stroke-linejoin="round" d="m14.625 17.584-2.34-1.14.186 1.526-.02.642 2.174-1.028Zm-7.25 0 2.175 1.028-.014-.642.173-1.526-2.334 1.14Z"/>
  <path fill="#233447" stroke="#233447" stroke-linecap="round" stroke-linejoin="round" d="m9.584 13.862-1.947-.574 1.374-.628.573 1.202Zm2.825 0 .573-1.202 1.38.628-1.953.574Z"/>
  <path fill="#CD6116" stroke="#CD6116" stroke-linecap="round" stroke-linejoin="round" d="m7.375 17.584.331-2.804-2.161.062 1.83 2.742Zm6.919-2.804.331 2.804 1.83-2.742-2.161-.062Zm1.643-3.087-3.88.173.358 1.996.574-1.202 1.38.629 1.568-1.596Zm-8.3 1.596 1.381-.629.566 1.202.366-1.996-3.887-.173 1.574 1.596Z"/>
  <path fill="#E4751F" stroke="#E4751F" stroke-linecap="round" stroke-linejoin="round" d="m6.063 11.693 1.63 3.177-.056-1.581-1.574-1.596Zm8.307 1.596-.07 1.58 1.637-3.176-1.567 1.596Zm-4.42-1.423-.366 1.996.456 2.354.104-3.1-.194-1.25Zm2.107 0-.187 1.243.083 3.107.463-2.354-.36-1.996Z"/>
  <path fill="#F6851B" stroke="#F6851B" stroke-linecap="round" stroke-linejoin="round" d="m12.416 13.862-.463 2.354.331.228 2.017-1.574.069-1.581-1.954.573Zm-4.779-.573.055 1.58 2.017 1.575.331-.228-.456-2.354-1.947-.573Z"/>
  <path fill="#C0AD9E" stroke="#C0AD9E" stroke-linecap="round" stroke-linejoin="round" d="m12.45 18.612.02-.642-.172-.152H9.695l-.159.152.014.642-2.175-1.028.76.621 1.54 1.07h2.644l1.547-1.07.76-.621-2.176 1.028Z"/>
  <path fill="#161616" stroke="#161616" stroke-linecap="round" stroke-linejoin="round" d="m12.284 16.444-.331-.228H10.04l-.331.228-.173 1.526.159-.152h2.603l.173.152-.187-1.526Z"/>
  <path fill="#763D16" stroke="#763D16" stroke-linecap="round" stroke-linejoin="round" d="m19.217 8.386.587-2.818-.877-2.617-6.643 4.93 2.555 2.162 3.612 1.057.8-.933-.345-.248.553-.504-.428-.332.552-.421-.366-.276ZM2.196 5.568l.587 2.818-.373.276.552.421-.42.332.552.504-.346.248.794.933 3.612-1.057 2.555-2.161-6.643-4.93-.87 2.616Z"/>
  <path fill="#F6851B" stroke="#F6851B" stroke-linecap="round" stroke-linejoin="round" d="m18.45 11.1-3.61-1.057 1.097 1.65-1.636 3.177 2.154-.028h3.211L18.451 11.1ZM7.155 10.043 3.542 11.1l-1.201 3.742h3.204l2.147.028-1.63-3.177 1.092-1.65Zm4.902 1.823.228-3.984 1.05-2.838H8.673l1.036 2.838.241 3.984.083 1.257.007 3.093h1.913l.014-3.093.09-1.257Z"/>
  <defs>
    <radialGradient id="a" cx="0" cy="0" r="1" gradientTransform="matrix(20 0 0 20 14 17.5)" gradientUnits="userSpaceOnUse">
      <stop stop-color="#5D9DF6"/>
      <stop offset="1" stop-color="#006FFF"/>
    </radialGradient>
  </defs>
</svg>
