<svg xmlns="http://www.w3.org/2000/svg" viewBox="0 0 82.83 125.49"><defs><style>.cls-1{fill:#fe2843;}</style></defs><g id="Layer_2" data-name="Layer 2"><g id="Layer_1-2" data-name="Layer 1"><path class="cls-1" d="M73.9,64.8c-1.45-1.32-.71-2.43-.65-3.48.49-8.24.61-16.46-2.06-24.43-1.37-4.09-3.7-7.4-8.07-8.66s-5.7-.25-5.71,4.27c0,17.34.07,34.68-.09,52a15.69,15.69,0,0,1-16.61,15.56c-8.4-.41-14.38-6.2-15.46-15-.89-7.27,4.4-14.62,12.07-16.79a24.13,24.13,0,0,1,7.42-.76c2.1.06,3.31-.68,3.25-3-.08-3.24-.07-6.49,0-9.73,0-2.14-1-2.75-3-2.81C25.44,51.44,10.73,63.57,9.73,82.47c-1,18.51,13.05,31.1,27.46,32.91,19.74,2.49,32.62-12.1,35.13-24.58,1.2-5.91.44-11.94.57-17.92.1-4.78,4.29-7.22,8.6-5A2.16,2.16,0,0,1,82.73,70c.12,11.82,1,23.65-5.36,34.6C68.31,120.29,49,128.8,31.5,124.28A41.62,41.62,0,0,1,0,84.89c-.72-24.71,20.59-43,42-42.29,6,.2,6,0,6-6.13,0-10,0-20,0-29.94,0-2.8.32-5.4,3.45-6.3s4.88,1.1,6.15,3.59C60.79,10.17,65.8,15,70.78,19.94c5.81,5.72,9.45,12.56,10.12,20.73C81.63,49.52,79,57.42,73.9,64.8Z"/></g></g></svg>