<?xml version="1.0" standalone="no"?>
<!DOCTYPE svg PUBLIC "-//W3C//DTD SVG 20010904//EN"
 "http://www.w3.org/TR/2001/REC-SVG-20010904/DTD/svg10.dtd">
<svg version="1.0" xmlns="http://www.w3.org/2000/svg"
 width="1000.000000pt" height="1000.000000pt" viewBox="0 0 1000.000000 1000.000000"
 preserveAspectRatio="xMidYMid meet">
<metadata>
Created by potrace 1.14, written by Peter Selinger 2001-2017
</metadata>
<g transform="translate(0.000000,1000.000000) scale(0.100000,-0.100000)"
fill="#000000" stroke="none">
<path d="M5793 9979 c-147 -45 -237 -157 -260 -324 -2 -16 -6 -653 -8 -1415
-2 -762 -6 -1409 -9 -1438 -7 -69 -37 -136 -70 -158 -53 -34 -122 -41 -408
-40 -153 1 -278 -1 -278 -4 0 -3 -15 -5 -33 -4 -17 0 -61 -3 -97 -7 -36 -4
-90 -11 -120 -15 -30 -3 -64 -8 -75 -11 -11 -3 -40 -9 -65 -13 -162 -30 -363
-89 -550 -162 -130 -51 -413 -186 -418 -200 -2 -4 -8 -8 -13 -8 -16 0 -232
-137 -326 -206 -227 -169 -382 -312 -588 -545 -57 -64 -162 -204 -233 -309
-67 -100 -201 -332 -205 -354 -1 -6 -5 -13 -8 -16 -4 -3 -33 -66 -64 -140 -31
-74 -61 -144 -66 -155 -15 -33 -68 -204 -93 -300 -36 -135 -57 -236 -72 -344
-3 -25 -8 -57 -10 -71 -20 -119 -26 -593 -10 -740 4 -41 9 -88 11 -105 2 -16
10 -70 19 -120 10 -49 19 -105 22 -124 2 -19 6 -37 9 -41 2 -4 7 -22 10 -40 3
-19 15 -68 26 -110 12 -41 22 -83 24 -93 2 -9 7 -22 10 -27 4 -6 9 -22 11 -37
3 -14 11 -38 19 -54 8 -15 15 -35 15 -44 0 -8 4 -23 9 -33 12 -23 46 -104 47
-114 1 -4 3 -11 4 -15 1 -5 2 -11 1 -15 0 -5 3 -8 9 -8 5 0 10 -5 10 -10 0
-25 160 -346 194 -389 15 -19 35 -53 42 -74 3 -9 10 -17 15 -17 5 0 9 -5 9
-10 0 -12 41 -73 53 -78 4 -2 7 -8 7 -13 0 -8 147 -207 174 -235 6 -6 34 -37
61 -69 94 -109 328 -335 397 -383 13 -9 31 -24 42 -33 25 -23 214 -159 222
-159 3 0 20 -11 37 -24 46 -35 257 -156 272 -156 8 0 15 -4 17 -8 8 -19 284
-137 449 -192 121 -40 289 -87 339 -95 30 -5 66 -12 88 -19 9 -3 33 -7 52 -10
71 -11 116 -17 140 -21 158 -27 684 -26 804 2 12 2 35 6 51 7 56 6 130 18 136
22 4 2 24 6 44 10 55 8 64 10 135 29 36 10 71 18 78 18 6 0 12 4 12 9 0 5 4 7
9 4 8 -5 229 62 276 84 11 5 45 19 75 30 59 23 75 29 193 84 42 20 81 36 86
36 5 0 11 4 13 8 2 5 30 22 63 39 146 73 401 242 545 363 30 25 66 54 80 65
13 11 92 88 175 170 175 176 341 380 426 525 18 30 36 57 39 60 8 6 117 204
149 270 24 49 112 259 116 275 1 6 5 17 8 25 16 43 69 222 86 295 9 38 13 54
26 123 3 15 8 34 10 42 3 8 7 33 10 55 3 22 8 51 11 65 2 14 6 36 9 49 2 13 7
47 10 75 2 28 7 62 10 76 5 25 8 68 22 265 4 61 8 371 8 690 -1 632 1 611 -58
665 -87 83 -319 120 -446 71 -99 -38 -166 -96 -220 -193 -56 -101 -64 -157
-61 -463 7 -789 2 -954 -34 -1131 -2 -12 -7 -39 -10 -60 -11 -69 -54 -226 -90
-325 -31 -88 -140 -330 -159 -354 -4 -5 -33 -52 -63 -104 -31 -52 -60 -99 -65
-105 -5 -6 -33 -44 -61 -83 -28 -40 -55 -73 -60 -73 -4 0 -8 -7 -8 -15 0 -7
-6 -18 -13 -22 -7 -4 -23 -21 -36 -38 -69 -91 -276 -287 -400 -378 -53 -39
-97 -75 -99 -79 -2 -4 -8 -8 -14 -8 -6 0 -25 -10 -42 -23 -103 -78 -452 -244
-572 -273 -16 -4 -33 -9 -39 -13 -5 -3 -14 -6 -20 -7 -5 -1 -46 -11 -90 -22
-117 -30 -138 -35 -155 -37 -8 -1 -40 -5 -70 -10 -167 -24 -230 -29 -415 -28
-99 0 -202 3 -230 7 -27 4 -70 9 -94 11 -35 3 -90 11 -131 20 -3 0 -21 4 -40
8 -19 4 -46 10 -60 13 -14 3 -35 7 -47 9 -42 6 -313 97 -380 127 -26 12 -50
22 -53 23 -16 2 -180 87 -264 137 -105 62 -258 169 -320 223 -6 6 -29 25 -51
44 -69 57 -202 190 -197 196 3 3 1 5 -4 5 -5 0 -39 35 -74 78 -36 42 -70 82
-76 89 -23 25 -164 240 -164 251 0 7 -3 12 -7 12 -5 0 -13 10 -19 23 -5 12
-28 58 -51 102 -65 128 -97 206 -143 345 -27 83 -77 292 -85 354 -2 17 -7 47
-10 66 -24 157 -25 562 -1 705 2 17 7 50 10 75 3 25 8 56 11 70 3 14 8 41 11
60 18 109 99 377 143 475 10 22 29 65 42 95 44 103 186 345 249 423 156 195
214 257 347 374 63 55 257 203 267 203 3 0 31 17 63 39 51 34 288 155 369 188
97 40 326 116 393 129 12 3 51 11 85 19 110 25 207 41 390 62 28 3 155 6 281
7 228 1 230 1 274 -24 50 -28 77 -67 87 -125 8 -46 8 -344 0 -352 -2 -3 -1
-16 4 -29 5 -13 6 -25 2 -28 -4 -2 -6 -30 -5 -63 2 -32 3 -80 3 -108 0 -27 1
-70 1 -95 4 -175 0 -258 -15 -293 -15 -33 -67 -91 -84 -93 -4 0 -25 -5 -47
-11 -22 -7 -101 -12 -175 -12 -135 0 -253 -6 -300 -16 -14 -3 -41 -7 -60 -10
-42 -6 -59 -9 -125 -25 -80 -20 -128 -36 -222 -76 -17 -8 -36 -14 -42 -14 -6
0 -11 -4 -11 -10 0 -5 -5 -10 -11 -10 -6 0 -42 -19 -81 -42 -39 -24 -79 -48
-90 -55 -12 -6 -23 -15 -27 -20 -3 -5 -24 -22 -45 -39 -55 -40 -168 -156 -220
-223 -65 -84 -148 -226 -171 -291 -1 -3 -5 -12 -8 -20 -31 -70 -64 -202 -74
-290 -12 -99 -5 -286 12 -339 2 -9 7 -32 10 -51 8 -53 18 -94 28 -120 3 -8 11
-33 17 -55 12 -44 13 -45 61 -155 113 -257 328 -483 569 -597 116 -55 139 -64
250 -94 181 -49 439 -57 606 -18 27 6 58 12 68 15 61 12 171 55 261 102 28 14
62 32 78 39 15 8 27 18 27 23 0 5 9 12 20 15 12 4 49 30 83 58 247 204 411
494 453 802 12 87 16 530 19 2385 1 1119 6 2056 9 2082 13 94 56 168 114 195
52 25 182 23 292 -6 73 -19 235 -84 250 -101 3 -3 19 -14 35 -24 107 -68 227
-207 303 -353 37 -71 107 -247 117 -293 2 -8 4 -15 5 -15 2 0 9 -30 14 -55 2
-8 6 -22 9 -30 4 -8 8 -24 10 -35 2 -11 7 -27 10 -35 3 -8 11 -42 18 -75 7
-33 14 -64 15 -70 7 -29 32 -180 38 -230 33 -252 40 -372 40 -700 0 -377 -12
-643 -33 -730 -11 -45 6 -107 40 -146 16 -19 32 -29 35 -24 2 6 29 48 60 95
31 47 62 96 70 110 83 144 131 237 193 373 29 65 83 203 82 212 0 2 9 26 20
51 11 26 17 49 15 52 -3 2 -1 13 4 22 9 17 54 187 64 240 15 89 26 151 31 190
28 219 24 551 -11 750 -3 19 -8 46 -9 60 -2 14 -11 57 -20 95 -9 39 -18 77
-19 85 -4 19 -4 20 -55 175 -35 108 -166 395 -214 469 -77 120 -175 262 -197
286 -8 8 -26 30 -40 48 -54 70 -124 145 -350 373 -211 212 -381 389 -440 459
-12 14 -31 36 -43 50 -162 185 -346 452 -430 625 -11 22 -26 48 -35 58 -8 9
-12 17 -8 17 16 0 -82 126 -135 174 -91 82 -207 104 -336 65z"/>
</g>
</svg>
